<svg xmlns="http://www.w3.org/2000/svg" width="95" height="43" viewBox="0 0 95 43">
  <path d="M47.4998282,0 C40.3891415,0.00120827432 33.7703884,3.6298442 29.9452677,9.62403452 L0,9.62403452 L2.98111118,12.60514 L28.3896958,12.60514 C27.907444,13.7270824 27.524797,14.8892634 27.2461771,16.0782514 L6.45421406,16.0782514 L9.39896009,19.0229918 L26.7641355,19.0229918 C26.7071349,19.6232633 26.6762272,20.2257268 26.6715,20.82868 C26.6769859,21.3854912 26.7047987,21.9418585 26.7548712,22.4964408 L12.8724055,22.4964408 L15.8171516,25.4411883 L27.207751,25.4411883 C27.4718105,26.6287488 27.8394074,27.7908911 28.3063254,28.9142854 L19.2902545,28.9142854 L22.2713656,31.895398 L29.8841974,31.895398 C33.6881797,37.9604994 40.3405242,41.6468615 47.4998282,41.6570081 C54.659256,41.6469809 61.3117583,37.9606039 65.1158065,31.895398 L72.728644,31.895398 L75.7097492,28.9142854 L66.693674,28.9142854 C67.1605939,27.7908912 67.5281925,26.6287489 67.7922537,25.4411883 L79.1828538,25.4411883 L82.127594,22.4964408 L68.2451372,22.4964408 C68.2952074,21.9418584 68.3230186,21.3854911 68.3285022,20.82868 C68.3238898,20.2257318 68.2930969,19.6232683 68.2362106,19.0229918 L85.6010428,19.0229918 L88.5457834,16.0782514 L67.7538277,16.0782514 C67.4752074,14.8892634 67.0925607,13.7270824 66.610309,12.60514 L92.0188948,12.60514 L95,9.62403452 L65.0547384,9.62403452 C61.2295508,3.62973951 54.6106391,0.00108888961 47.4998282,0 L47.4998282,0 Z M47.4998282,2.82330071 C52.275153,2.82330071 56.8548937,4.72028804 60.2315588,8.09695177 C63.6082243,11.4736155 65.5052162,16.0533552 65.5052162,20.82868 C65.5052162,25.6040048 63.6082243,30.1837445 60.2315588,33.5604082 C56.8548937,36.937072 52.275153,38.8340593 47.4998282,38.8340593 C37.5557314,38.8340593 29.4944467,30.7727767 29.4944467,20.82868 C29.4944467,10.8845832 37.5557314,2.82330071 47.4998282,2.82330071 L47.4998282,2.82330071 Z M33.1764923,16.1619616 L33.1764923,25.4950466 L35.1228447,25.4950466 L35.1228447,18.1484556 L37.1758968,25.4950466 L39.1932674,25.4950466 L41.2531832,18.1484556 L41.2531832,25.4950466 L43.1998781,25.4950466 L43.1998781,16.1619616 L40.0568265,16.1619616 L38.1952177,22.5283464 L36.3123376,16.1619616 L33.1764923,16.1619616 Z M45.231315,16.1619616 L45.231315,25.4950466 L47.3265682,25.4950466 L47.3265682,16.1619616 L45.231315,16.1619616 Z M49.3367355,16.1619616 L49.3367355,25.4950466 L51.2834297,25.4950466 L51.2834297,19.4089689 L55.467077,25.4950466 L57.5695307,25.4950466 L57.5695307,16.1619616 L55.6228414,16.1619616 L55.6228414,22.3945409 L51.3757212,16.1619616 L49.3367355,16.1619616 Z M59.7282562,16.1619616 L59.7282562,25.4950466 L61.8235079,25.4950466 L61.8235079,16.1619616 L59.7282562,16.1619616 Z" transform="translate(0 .5)"/>
</svg>
